<mxfile host="app.diagrams.net" modified="2023-03-30T23:46:46.492Z" agent="Mozilla/5.0 (Windows NT 10.0; Win64; x64) AppleWebKit/537.36 (KHTML, like Gecko) Chrome/111.0.0.0 Safari/537.36" etag="rVCSWJS-oIZORQJoH8NA" compressed="false" version="21.1.2" type="github">
  <diagram id="kgpKYQtTHZ0yAKxKKP6v" name="Page-1">
    <mxGraphModel dx="1434" dy="764" grid="1" gridSize="10" guides="1" tooltips="1" connect="1" arrows="1" fold="1" page="1" pageScale="1" pageWidth="1100" pageHeight="850" math="0" shadow="0">
      <root>
        <mxCell id="0" />
        <mxCell id="1" parent="0" />
        <mxCell id="3nuBFxr9cyL0pnOWT2aG-1" value="Posting Content to Subreddit" style="shape=table;childLayout=tableLayout;startSize=40;collapsible=0;recursiveResize=0;expand=0;fontStyle=1;fillColor=#f5f5f5;fontColor=#333333;strokeColor=#666666;" parent="1" vertex="1">
          <mxGeometry x="100" y="70" width="830" height="650" as="geometry" />
        </mxCell>
        <mxCell id="3nuBFxr9cyL0pnOWT2aG-2" value="" style="edgeStyle=orthogonalEdgeStyle;rounded=0;orthogonalLoop=1;jettySize=auto;html=1;exitX=1;exitY=0.5;exitDx=0;exitDy=0;fillColor=#f5f5f5;strokeColor=#666666;" parent="3nuBFxr9cyL0pnOWT2aG-1" source="WTJP5IJ2UGAIl-3d5kSi-33" target="3nuBFxr9cyL0pnOWT2aG-17" edge="1">
          <mxGeometry relative="1" as="geometry" />
        </mxCell>
        <mxCell id="3nuBFxr9cyL0pnOWT2aG-3" value="Creator" style="shape=tableRow;horizontal=0;swimlaneHead=0;swimlaneBody=0;top=0;left=0;bottom=0;right=0;points=[[0,0.5],[1,0.5]];portConstraint=eastwest;startSize=40;collapsible=0;recursiveResize=0;expand=0;fontStyle=1;labelBorderColor=none;fillColor=#f5f5f5;fontColor=#333333;strokeColor=#666666;" parent="3nuBFxr9cyL0pnOWT2aG-1" vertex="1">
          <mxGeometry y="40" width="830" height="180" as="geometry" />
        </mxCell>
        <mxCell id="3nuBFxr9cyL0pnOWT2aG-4" value="Find Content" style="swimlane;swimlaneHead=0;swimlaneBody=0;connectable=0;startSize=40;collapsible=0;recursiveResize=0;expand=0;fontStyle=1;fillColor=#f5f5f5;fontColor=#333333;strokeColor=#666666;" parent="3nuBFxr9cyL0pnOWT2aG-3" vertex="1">
          <mxGeometry x="40" width="115" height="180" as="geometry">
            <mxRectangle width="115" height="180" as="alternateBounds" />
          </mxGeometry>
        </mxCell>
        <mxCell id="3nuBFxr9cyL0pnOWT2aG-5" style="edgeStyle=orthogonalEdgeStyle;rounded=0;orthogonalLoop=1;jettySize=auto;html=1;fillColor=#f5f5f5;strokeColor=#666666;" parent="3nuBFxr9cyL0pnOWT2aG-4" source="3nuBFxr9cyL0pnOWT2aG-6" target="3nuBFxr9cyL0pnOWT2aG-7" edge="1">
          <mxGeometry relative="1" as="geometry" />
        </mxCell>
        <mxCell id="3nuBFxr9cyL0pnOWT2aG-6" value="Start" style="rounded=1;whiteSpace=wrap;html=1;arcSize=50;fillColor=#f5f5f5;fontColor=#333333;strokeColor=#666666;" parent="3nuBFxr9cyL0pnOWT2aG-4" vertex="1">
          <mxGeometry x="20" y="60" width="90" height="40" as="geometry" />
        </mxCell>
        <mxCell id="3nuBFxr9cyL0pnOWT2aG-7" value="Add Video to Pornhub Playlist" style="rounded=0;whiteSpace=wrap;html=1;fillColor=#f5f5f5;fontColor=#333333;strokeColor=#666666;" parent="3nuBFxr9cyL0pnOWT2aG-4" vertex="1">
          <mxGeometry x="20" y="120" width="90" height="40" as="geometry" />
        </mxCell>
        <mxCell id="WTJP5IJ2UGAIl-3d5kSi-20" value="Download Resources" style="swimlane;swimlaneHead=0;swimlaneBody=0;connectable=0;startSize=40;collapsible=0;recursiveResize=0;expand=0;fontStyle=1;fillColor=#f5f5f5;fontColor=#333333;strokeColor=#666666;" parent="3nuBFxr9cyL0pnOWT2aG-3" vertex="1">
          <mxGeometry x="155" width="151" height="180" as="geometry">
            <mxRectangle width="151" height="180" as="alternateBounds" />
          </mxGeometry>
        </mxCell>
        <mxCell id="3nuBFxr9cyL0pnOWT2aG-8" value="Edit Content" style="swimlane;swimlaneHead=0;swimlaneBody=0;connectable=0;startSize=40;collapsible=0;recursiveResize=0;expand=0;fontStyle=1;fillColor=#f5f5f5;fontColor=#333333;strokeColor=#666666;" parent="3nuBFxr9cyL0pnOWT2aG-3" vertex="1">
          <mxGeometry x="306" width="354" height="180" as="geometry">
            <mxRectangle width="354" height="180" as="alternateBounds" />
          </mxGeometry>
        </mxCell>
        <mxCell id="3nuBFxr9cyL0pnOWT2aG-10" value="Edit Clip" style="rounded=0;whiteSpace=wrap;html=1;fillColor=#f5f5f5;fontColor=#333333;strokeColor=#666666;" parent="3nuBFxr9cyL0pnOWT2aG-8" vertex="1">
          <mxGeometry x="120" y="60" width="90" height="40" as="geometry" />
        </mxCell>
        <mxCell id="3nuBFxr9cyL0pnOWT2aG-11" value="Post Content" style="swimlane;swimlaneHead=0;swimlaneBody=0;connectable=0;startSize=40;collapsible=0;recursiveResize=0;expand=0;fontStyle=1;fillColor=#f5f5f5;fontColor=#333333;strokeColor=#666666;" parent="3nuBFxr9cyL0pnOWT2aG-3" vertex="1">
          <mxGeometry x="660" width="170" height="180" as="geometry">
            <mxRectangle width="170" height="180" as="alternateBounds" />
          </mxGeometry>
        </mxCell>
        <mxCell id="3nuBFxr9cyL0pnOWT2aG-14" value="End" style="rounded=1;whiteSpace=wrap;html=1;arcSize=50;fillColor=#f5f5f5;fontColor=#333333;strokeColor=#666666;" parent="3nuBFxr9cyL0pnOWT2aG-11" vertex="1">
          <mxGeometry x="40" y="60" width="90" height="40" as="geometry" />
        </mxCell>
        <mxCell id="WTJP5IJ2UGAIl-3d5kSi-28" value="Watcher" style="shape=tableRow;horizontal=0;swimlaneHead=0;swimlaneBody=0;top=0;left=0;bottom=0;right=0;points=[[0,0.5],[1,0.5]];portConstraint=eastwest;startSize=40;collapsible=0;recursiveResize=0;expand=0;fontStyle=1;fillColor=#f5f5f5;fontColor=#333333;strokeColor=#666666;" parent="3nuBFxr9cyL0pnOWT2aG-1" vertex="1">
          <mxGeometry y="220" width="830" height="80" as="geometry" />
        </mxCell>
        <mxCell id="WTJP5IJ2UGAIl-3d5kSi-29" style="swimlane;swimlaneHead=0;swimlaneBody=0;connectable=0;startSize=0;collapsible=0;recursiveResize=0;expand=0;fontStyle=1;fillColor=#f5f5f5;fontColor=#333333;strokeColor=#666666;" parent="WTJP5IJ2UGAIl-3d5kSi-28" vertex="1">
          <mxGeometry x="40" width="115" height="80" as="geometry">
            <mxRectangle width="115" height="80" as="alternateBounds" />
          </mxGeometry>
        </mxCell>
        <mxCell id="WTJP5IJ2UGAIl-3d5kSi-33" value="Add Video Added Event" style="whiteSpace=wrap;html=1;fillColor=#f5f5f5;fontColor=#333333;strokeColor=#666666;" parent="WTJP5IJ2UGAIl-3d5kSi-29" vertex="1">
          <mxGeometry x="25" y="20" width="80" height="40" as="geometry" />
        </mxCell>
        <mxCell id="WTJP5IJ2UGAIl-3d5kSi-30" style="swimlane;swimlaneHead=0;swimlaneBody=0;connectable=0;startSize=0;collapsible=0;recursiveResize=0;expand=0;fontStyle=1;fillColor=#f5f5f5;fontColor=#333333;strokeColor=#666666;" parent="WTJP5IJ2UGAIl-3d5kSi-28" vertex="1">
          <mxGeometry x="155" width="151" height="80" as="geometry">
            <mxRectangle width="151" height="80" as="alternateBounds" />
          </mxGeometry>
        </mxCell>
        <mxCell id="WTJP5IJ2UGAIl-3d5kSi-31" style="swimlane;swimlaneHead=0;swimlaneBody=0;connectable=0;startSize=0;collapsible=0;recursiveResize=0;expand=0;fontStyle=1;fillColor=#f5f5f5;fontColor=#333333;strokeColor=#666666;" parent="WTJP5IJ2UGAIl-3d5kSi-28" vertex="1">
          <mxGeometry x="306" width="354" height="80" as="geometry">
            <mxRectangle width="354" height="80" as="alternateBounds" />
          </mxGeometry>
        </mxCell>
        <mxCell id="WTJP5IJ2UGAIl-3d5kSi-32" style="swimlane;swimlaneHead=0;swimlaneBody=0;connectable=0;startSize=0;collapsible=0;recursiveResize=0;expand=0;fontStyle=1;fillColor=#f5f5f5;fontColor=#333333;strokeColor=#666666;" parent="WTJP5IJ2UGAIl-3d5kSi-28" vertex="1">
          <mxGeometry x="660" width="170" height="80" as="geometry">
            <mxRectangle width="170" height="80" as="alternateBounds" />
          </mxGeometry>
        </mxCell>
        <mxCell id="3nuBFxr9cyL0pnOWT2aG-15" value="Service" style="shape=tableRow;horizontal=0;swimlaneHead=0;swimlaneBody=0;top=0;left=0;bottom=0;right=0;points=[[0,0.5],[1,0.5]];portConstraint=eastwest;startSize=40;collapsible=0;recursiveResize=0;expand=0;fontStyle=1;fillColor=#f5f5f5;fontColor=#333333;strokeColor=#666666;" parent="3nuBFxr9cyL0pnOWT2aG-1" vertex="1">
          <mxGeometry y="300" width="830" height="80" as="geometry" />
        </mxCell>
        <mxCell id="3nuBFxr9cyL0pnOWT2aG-16" value="" style="swimlane;swimlaneHead=0;swimlaneBody=0;connectable=0;startSize=0;collapsible=0;recursiveResize=0;expand=0;fontStyle=1;fillColor=#f5f5f5;fontColor=#333333;strokeColor=#666666;" parent="3nuBFxr9cyL0pnOWT2aG-15" vertex="1">
          <mxGeometry x="40" width="115" height="80" as="geometry">
            <mxRectangle width="115" height="80" as="alternateBounds" />
          </mxGeometry>
        </mxCell>
        <mxCell id="WTJP5IJ2UGAIl-3d5kSi-21" style="swimlane;swimlaneHead=0;swimlaneBody=0;connectable=0;startSize=0;collapsible=0;recursiveResize=0;expand=0;fontStyle=1;fillColor=#f5f5f5;fontColor=#333333;strokeColor=#666666;" parent="3nuBFxr9cyL0pnOWT2aG-15" vertex="1">
          <mxGeometry x="155" width="151" height="80" as="geometry">
            <mxRectangle width="151" height="80" as="alternateBounds" />
          </mxGeometry>
        </mxCell>
        <mxCell id="3nuBFxr9cyL0pnOWT2aG-17" value="Read Added Video" style="rounded=0;whiteSpace=wrap;html=1;fillColor=#f5f5f5;fontColor=#333333;strokeColor=#666666;" parent="WTJP5IJ2UGAIl-3d5kSi-21" vertex="1">
          <mxGeometry x="30" y="20" width="90" height="40" as="geometry" />
        </mxCell>
        <mxCell id="3nuBFxr9cyL0pnOWT2aG-18" value="" style="swimlane;swimlaneHead=0;swimlaneBody=0;connectable=0;startSize=0;collapsible=0;recursiveResize=0;expand=0;fontStyle=1;fillColor=#f5f5f5;fontColor=#333333;strokeColor=#666666;" parent="3nuBFxr9cyL0pnOWT2aG-15" vertex="1">
          <mxGeometry x="306" width="354" height="80" as="geometry">
            <mxRectangle width="354" height="80" as="alternateBounds" />
          </mxGeometry>
        </mxCell>
        <mxCell id="3nuBFxr9cyL0pnOWT2aG-9" value="Create new Job" style="rounded=0;whiteSpace=wrap;html=1;fillColor=#f5f5f5;fontColor=#333333;strokeColor=#666666;" parent="3nuBFxr9cyL0pnOWT2aG-18" vertex="1">
          <mxGeometry x="10" y="20" width="90" height="40" as="geometry" />
        </mxCell>
        <mxCell id="3nuBFxr9cyL0pnOWT2aG-23" value="" style="swimlane;swimlaneHead=0;swimlaneBody=0;connectable=0;startSize=0;collapsible=0;recursiveResize=0;expand=0;fontStyle=1;fillColor=#f5f5f5;fontColor=#333333;strokeColor=#666666;" parent="3nuBFxr9cyL0pnOWT2aG-15" vertex="1">
          <mxGeometry x="660" width="170" height="80" as="geometry">
            <mxRectangle width="170" height="80" as="alternateBounds" />
          </mxGeometry>
        </mxCell>
        <mxCell id="3nuBFxr9cyL0pnOWT2aG-24" value="" style="rounded=0;orthogonalLoop=1;jettySize=auto;html=1;entryX=0;entryY=0.5;entryDx=0;entryDy=0;fillColor=#f5f5f5;strokeColor=#666666;" parent="3nuBFxr9cyL0pnOWT2aG-15" source="3nuBFxr9cyL0pnOWT2aG-17" target="3nuBFxr9cyL0pnOWT2aG-9" edge="1">
          <mxGeometry relative="1" as="geometry" />
        </mxCell>
        <mxCell id="WTJP5IJ2UGAIl-3d5kSi-10" value="Job Queue" style="shape=tableRow;horizontal=0;swimlaneHead=0;swimlaneBody=0;top=0;left=0;bottom=0;right=0;points=[[0,0.5],[1,0.5]];portConstraint=eastwest;startSize=40;collapsible=0;recursiveResize=0;expand=0;fontStyle=1;fillColor=#f5f5f5;fontColor=#333333;strokeColor=#666666;" parent="3nuBFxr9cyL0pnOWT2aG-1" vertex="1">
          <mxGeometry y="380" width="830" height="80" as="geometry" />
        </mxCell>
        <mxCell id="WTJP5IJ2UGAIl-3d5kSi-11" style="swimlane;swimlaneHead=0;swimlaneBody=0;connectable=0;startSize=0;collapsible=0;recursiveResize=0;expand=0;fontStyle=1;fillColor=#f5f5f5;fontColor=#333333;strokeColor=#666666;" parent="WTJP5IJ2UGAIl-3d5kSi-10" vertex="1">
          <mxGeometry x="40" width="115" height="80" as="geometry">
            <mxRectangle width="115" height="80" as="alternateBounds" />
          </mxGeometry>
        </mxCell>
        <mxCell id="WTJP5IJ2UGAIl-3d5kSi-22" style="swimlane;swimlaneHead=0;swimlaneBody=0;connectable=0;startSize=0;collapsible=0;recursiveResize=0;expand=0;fontStyle=1;fillColor=#f5f5f5;fontColor=#333333;strokeColor=#666666;" parent="WTJP5IJ2UGAIl-3d5kSi-10" vertex="1">
          <mxGeometry x="155" width="151" height="80" as="geometry">
            <mxRectangle width="151" height="80" as="alternateBounds" />
          </mxGeometry>
        </mxCell>
        <mxCell id="WTJP5IJ2UGAIl-3d5kSi-12" style="swimlane;swimlaneHead=0;swimlaneBody=0;connectable=0;startSize=0;collapsible=0;recursiveResize=0;expand=0;fontStyle=1;fillColor=#f5f5f5;fontColor=#333333;strokeColor=#666666;" parent="WTJP5IJ2UGAIl-3d5kSi-10" vertex="1">
          <mxGeometry x="306" width="354" height="80" as="geometry">
            <mxRectangle width="354" height="80" as="alternateBounds" />
          </mxGeometry>
        </mxCell>
        <mxCell id="3nuBFxr9cyL0pnOWT2aG-21" value="Clip Editing Job" style="shape=document;whiteSpace=wrap;html=1;boundedLbl=1;fillColor=#f5f5f5;fontColor=#333333;strokeColor=#666666;" parent="WTJP5IJ2UGAIl-3d5kSi-12" vertex="1">
          <mxGeometry x="10" y="10" width="90" height="60" as="geometry" />
        </mxCell>
        <mxCell id="WTJP5IJ2UGAIl-3d5kSi-13" style="swimlane;swimlaneHead=0;swimlaneBody=0;connectable=0;startSize=0;collapsible=0;recursiveResize=0;expand=0;fontStyle=1;fillColor=#f5f5f5;fontColor=#333333;strokeColor=#666666;" parent="WTJP5IJ2UGAIl-3d5kSi-10" vertex="1">
          <mxGeometry x="660" width="170" height="80" as="geometry">
            <mxRectangle width="170" height="80" as="alternateBounds" />
          </mxGeometry>
        </mxCell>
        <mxCell id="WTJP5IJ2UGAIl-3d5kSi-16" value="File Downloader" style="shape=tableRow;horizontal=0;swimlaneHead=0;swimlaneBody=0;top=0;left=0;bottom=0;right=0;points=[[0,0.5],[1,0.5]];portConstraint=eastwest;startSize=40;collapsible=0;recursiveResize=0;expand=0;fontStyle=1;fillColor=#f5f5f5;fontColor=#333333;strokeColor=#666666;" parent="3nuBFxr9cyL0pnOWT2aG-1" vertex="1">
          <mxGeometry y="460" width="830" height="110" as="geometry" />
        </mxCell>
        <mxCell id="WTJP5IJ2UGAIl-3d5kSi-17" style="swimlane;swimlaneHead=0;swimlaneBody=0;connectable=0;startSize=0;collapsible=0;recursiveResize=0;expand=0;fontStyle=1;fillColor=#f5f5f5;fontColor=#333333;strokeColor=#666666;" parent="WTJP5IJ2UGAIl-3d5kSi-16" vertex="1">
          <mxGeometry x="40" width="115" height="110" as="geometry">
            <mxRectangle width="115" height="110" as="alternateBounds" />
          </mxGeometry>
        </mxCell>
        <mxCell id="WTJP5IJ2UGAIl-3d5kSi-27" value="Read Added Video" style="rounded=0;whiteSpace=wrap;html=1;fillColor=#f5f5f5;fontColor=#333333;strokeColor=#666666;" parent="WTJP5IJ2UGAIl-3d5kSi-17" vertex="1">
          <mxGeometry x="20" y="35" width="90" height="40" as="geometry" />
        </mxCell>
        <mxCell id="WTJP5IJ2UGAIl-3d5kSi-23" style="swimlane;swimlaneHead=0;swimlaneBody=0;connectable=0;startSize=0;collapsible=0;recursiveResize=0;expand=0;fontStyle=1;fillColor=#f5f5f5;fontColor=#333333;strokeColor=#666666;" parent="WTJP5IJ2UGAIl-3d5kSi-16" vertex="1">
          <mxGeometry x="155" width="151" height="110" as="geometry">
            <mxRectangle width="151" height="110" as="alternateBounds" />
          </mxGeometry>
        </mxCell>
        <mxCell id="WTJP5IJ2UGAIl-3d5kSi-26" value="Video File" style="shape=document;whiteSpace=wrap;html=1;boundedLbl=1;fillColor=#f5f5f5;fontColor=#333333;strokeColor=#666666;" parent="WTJP5IJ2UGAIl-3d5kSi-23" vertex="1">
          <mxGeometry x="30" y="25" width="90" height="60" as="geometry" />
        </mxCell>
        <mxCell id="WTJP5IJ2UGAIl-3d5kSi-18" style="swimlane;swimlaneHead=0;swimlaneBody=0;connectable=0;startSize=0;collapsible=0;recursiveResize=0;expand=0;fontStyle=1;fillColor=#f5f5f5;fontColor=#333333;strokeColor=#666666;" parent="WTJP5IJ2UGAIl-3d5kSi-16" vertex="1">
          <mxGeometry x="306" width="354" height="110" as="geometry">
            <mxRectangle width="354" height="110" as="alternateBounds" />
          </mxGeometry>
        </mxCell>
        <mxCell id="WTJP5IJ2UGAIl-3d5kSi-19" style="swimlane;swimlaneHead=0;swimlaneBody=0;connectable=0;startSize=0;collapsible=0;recursiveResize=0;expand=0;fontStyle=1;fillColor=#f5f5f5;fontColor=#333333;strokeColor=#666666;" parent="WTJP5IJ2UGAIl-3d5kSi-16" vertex="1">
          <mxGeometry x="660" width="170" height="110" as="geometry">
            <mxRectangle width="170" height="110" as="alternateBounds" />
          </mxGeometry>
        </mxCell>
        <mxCell id="TqJwU_zK23lZFgVYu2XH-3" style="edgeStyle=orthogonalEdgeStyle;rounded=0;orthogonalLoop=1;jettySize=auto;html=1;fillColor=#f5f5f5;strokeColor=#666666;" parent="WTJP5IJ2UGAIl-3d5kSi-16" source="WTJP5IJ2UGAIl-3d5kSi-27" target="WTJP5IJ2UGAIl-3d5kSi-26" edge="1">
          <mxGeometry relative="1" as="geometry" />
        </mxCell>
        <mxCell id="WTJP5IJ2UGAIl-3d5kSi-6" value="Scheduler" style="shape=tableRow;horizontal=0;swimlaneHead=0;swimlaneBody=0;top=0;left=0;bottom=0;right=0;points=[[0,0.5],[1,0.5]];portConstraint=eastwest;startSize=40;collapsible=0;recursiveResize=0;expand=0;fontStyle=1;fillColor=#f5f5f5;fontColor=#333333;strokeColor=#666666;" parent="3nuBFxr9cyL0pnOWT2aG-1" vertex="1">
          <mxGeometry y="570" width="830" height="80" as="geometry" />
        </mxCell>
        <mxCell id="WTJP5IJ2UGAIl-3d5kSi-7" style="swimlane;swimlaneHead=0;swimlaneBody=0;connectable=0;startSize=0;collapsible=0;recursiveResize=0;expand=0;fontStyle=1;fillColor=#f5f5f5;fontColor=#333333;strokeColor=#666666;" parent="WTJP5IJ2UGAIl-3d5kSi-6" vertex="1">
          <mxGeometry x="40" width="115" height="80" as="geometry">
            <mxRectangle width="115" height="80" as="alternateBounds" />
          </mxGeometry>
        </mxCell>
        <mxCell id="WTJP5IJ2UGAIl-3d5kSi-24" style="swimlane;swimlaneHead=0;swimlaneBody=0;connectable=0;startSize=0;collapsible=0;recursiveResize=0;expand=0;fontStyle=1;fillColor=#f5f5f5;fontColor=#333333;strokeColor=#666666;" parent="WTJP5IJ2UGAIl-3d5kSi-6" vertex="1">
          <mxGeometry x="155" width="151" height="80" as="geometry">
            <mxRectangle width="151" height="80" as="alternateBounds" />
          </mxGeometry>
        </mxCell>
        <mxCell id="WTJP5IJ2UGAIl-3d5kSi-8" style="swimlane;swimlaneHead=0;swimlaneBody=0;connectable=0;startSize=0;collapsible=0;recursiveResize=0;expand=0;fontStyle=1;fillColor=#f5f5f5;fontColor=#333333;strokeColor=#666666;" parent="WTJP5IJ2UGAIl-3d5kSi-6" vertex="1">
          <mxGeometry x="306" width="354" height="80" as="geometry">
            <mxRectangle width="354" height="80" as="alternateBounds" />
          </mxGeometry>
        </mxCell>
        <mxCell id="WTJP5IJ2UGAIl-3d5kSi-14" value="Queue Post" style="shape=document;whiteSpace=wrap;html=1;boundedLbl=1;fillColor=#f5f5f5;fontColor=#333333;strokeColor=#666666;" parent="WTJP5IJ2UGAIl-3d5kSi-8" vertex="1">
          <mxGeometry x="120" y="10" width="90" height="60" as="geometry" />
        </mxCell>
        <mxCell id="WTJP5IJ2UGAIl-3d5kSi-9" style="swimlane;swimlaneHead=0;swimlaneBody=0;connectable=0;startSize=0;collapsible=0;recursiveResize=0;expand=0;fontStyle=1;fillColor=#f5f5f5;fontColor=#333333;strokeColor=#666666;" parent="WTJP5IJ2UGAIl-3d5kSi-6" vertex="1">
          <mxGeometry x="660" width="170" height="80" as="geometry">
            <mxRectangle width="170" height="80" as="alternateBounds" />
          </mxGeometry>
        </mxCell>
        <mxCell id="TqJwU_zK23lZFgVYu2XH-5" value="Post to Subbreddit" style="whiteSpace=wrap;html=1;fillColor=#f5f5f5;fontColor=#333333;strokeColor=#666666;" parent="WTJP5IJ2UGAIl-3d5kSi-9" vertex="1">
          <mxGeometry x="35" y="15" width="100" height="50" as="geometry" />
        </mxCell>
        <mxCell id="TqJwU_zK23lZFgVYu2XH-6" value="" style="edgeStyle=orthogonalEdgeStyle;rounded=0;orthogonalLoop=1;jettySize=auto;html=1;fillColor=#f5f5f5;strokeColor=#666666;" parent="WTJP5IJ2UGAIl-3d5kSi-6" source="WTJP5IJ2UGAIl-3d5kSi-14" target="TqJwU_zK23lZFgVYu2XH-5" edge="1">
          <mxGeometry relative="1" as="geometry" />
        </mxCell>
        <mxCell id="3nuBFxr9cyL0pnOWT2aG-27" value="" style="edgeStyle=orthogonalEdgeStyle;rounded=0;orthogonalLoop=1;jettySize=auto;html=1;exitX=1;exitY=0.5;exitDx=0;exitDy=0;entryX=0.25;entryY=1;entryDx=0;entryDy=0;fillColor=#f5f5f5;strokeColor=#666666;" parent="3nuBFxr9cyL0pnOWT2aG-1" source="3nuBFxr9cyL0pnOWT2aG-21" target="3nuBFxr9cyL0pnOWT2aG-10" edge="1">
          <mxGeometry relative="1" as="geometry">
            <mxPoint x="390" y="160" as="targetPoint" />
          </mxGeometry>
        </mxCell>
        <mxCell id="3nuBFxr9cyL0pnOWT2aG-25" value="" style="edgeStyle=orthogonalEdgeStyle;rounded=0;orthogonalLoop=1;jettySize=auto;html=1;fillColor=#f5f5f5;strokeColor=#666666;" parent="3nuBFxr9cyL0pnOWT2aG-1" source="3nuBFxr9cyL0pnOWT2aG-9" target="3nuBFxr9cyL0pnOWT2aG-21" edge="1">
          <mxGeometry relative="1" as="geometry" />
        </mxCell>
        <mxCell id="WTJP5IJ2UGAIl-3d5kSi-15" style="edgeStyle=orthogonalEdgeStyle;rounded=0;orthogonalLoop=1;jettySize=auto;html=1;exitX=0.75;exitY=1;exitDx=0;exitDy=0;entryX=0.75;entryY=0;entryDx=0;entryDy=0;fillColor=#f5f5f5;strokeColor=#666666;" parent="3nuBFxr9cyL0pnOWT2aG-1" source="3nuBFxr9cyL0pnOWT2aG-10" target="WTJP5IJ2UGAIl-3d5kSi-14" edge="1">
          <mxGeometry relative="1" as="geometry" />
        </mxCell>
        <mxCell id="WTJP5IJ2UGAIl-3d5kSi-34" style="edgeStyle=orthogonalEdgeStyle;rounded=0;orthogonalLoop=1;jettySize=auto;html=1;exitX=0.5;exitY=1;exitDx=0;exitDy=0;entryX=0.5;entryY=0;entryDx=0;entryDy=0;fillColor=#f5f5f5;strokeColor=#666666;" parent="3nuBFxr9cyL0pnOWT2aG-1" source="3nuBFxr9cyL0pnOWT2aG-7" target="WTJP5IJ2UGAIl-3d5kSi-33" edge="1">
          <mxGeometry relative="1" as="geometry" />
        </mxCell>
        <mxCell id="TqJwU_zK23lZFgVYu2XH-2" style="edgeStyle=orthogonalEdgeStyle;rounded=0;orthogonalLoop=1;jettySize=auto;html=1;exitX=0.5;exitY=1;exitDx=0;exitDy=0;fillColor=#f5f5f5;strokeColor=#666666;" parent="3nuBFxr9cyL0pnOWT2aG-1" source="WTJP5IJ2UGAIl-3d5kSi-33" target="WTJP5IJ2UGAIl-3d5kSi-27" edge="1">
          <mxGeometry relative="1" as="geometry" />
        </mxCell>
        <mxCell id="TqJwU_zK23lZFgVYu2XH-4" style="edgeStyle=orthogonalEdgeStyle;rounded=0;orthogonalLoop=1;jettySize=auto;html=1;entryX=0;entryY=0.5;entryDx=0;entryDy=0;fillColor=#f5f5f5;strokeColor=#666666;" parent="3nuBFxr9cyL0pnOWT2aG-1" source="WTJP5IJ2UGAIl-3d5kSi-26" target="3nuBFxr9cyL0pnOWT2aG-21" edge="1">
          <mxGeometry relative="1" as="geometry" />
        </mxCell>
        <mxCell id="TqJwU_zK23lZFgVYu2XH-7" style="edgeStyle=orthogonalEdgeStyle;rounded=0;orthogonalLoop=1;jettySize=auto;html=1;fillColor=#f5f5f5;strokeColor=#666666;" parent="3nuBFxr9cyL0pnOWT2aG-1" source="TqJwU_zK23lZFgVYu2XH-5" target="3nuBFxr9cyL0pnOWT2aG-14" edge="1">
          <mxGeometry relative="1" as="geometry" />
        </mxCell>
      </root>
    </mxGraphModel>
  </diagram>
</mxfile>
